%TF.GenerationSoftware,KiCad,Pcbnew,7.0.2*%
%TF.CreationDate,2023-10-11T17:53:06-05:00*%
%TF.ProjectId,motor_driver,6d6f746f-725f-4647-9269-7665722e6b69,rev?*%
%TF.SameCoordinates,Original*%
%TF.FileFunction,Copper,L1,Top*%
%TF.FilePolarity,Positive*%
%FSLAX46Y46*%
G04 Gerber Fmt 4.6, Leading zero omitted, Abs format (unit mm)*
G04 Created by KiCad (PCBNEW 7.0.2) date 2023-10-11 17:53:06*
%MOMM*%
%LPD*%
G01*
G04 APERTURE LIST*
%TA.AperFunction,ComponentPad*%
%ADD10R,1.600000X1.600000*%
%TD*%
%TA.AperFunction,ComponentPad*%
%ADD11O,1.600000X1.600000*%
%TD*%
%TA.AperFunction,ComponentPad*%
%ADD12R,1.905000X2.000000*%
%TD*%
%TA.AperFunction,ComponentPad*%
%ADD13O,1.905000X2.000000*%
%TD*%
%TA.AperFunction,ComponentPad*%
%ADD14R,3.000000X3.000000*%
%TD*%
%TA.AperFunction,ComponentPad*%
%ADD15C,3.000000*%
%TD*%
%TA.AperFunction,ComponentPad*%
%ADD16R,1.700000X1.700000*%
%TD*%
%TA.AperFunction,ComponentPad*%
%ADD17O,1.700000X1.700000*%
%TD*%
%TA.AperFunction,ComponentPad*%
%ADD18R,1.800000X1.800000*%
%TD*%
%TA.AperFunction,ComponentPad*%
%ADD19O,1.800000X1.800000*%
%TD*%
%TA.AperFunction,ComponentPad*%
%ADD20C,1.600000*%
%TD*%
%TA.AperFunction,Conductor*%
%ADD21C,0.250000*%
%TD*%
G04 APERTURE END LIST*
D10*
%TO.P,U5,1*%
%TO.N,Net-(U1-4A)*%
X90668000Y-58410000D03*
D11*
%TO.P,U5,2,-*%
X90668000Y-60950000D03*
%TO.P,U5,3,+*%
%TO.N,M2_D2*%
X90668000Y-63490000D03*
%TO.P,U5,4,V-*%
%TO.N,GND*%
X90668000Y-66030000D03*
%TO.P,U5,5,+*%
%TO.N,M2_SPEED*%
X98288000Y-66030000D03*
%TO.P,U5,6,-*%
%TO.N,Net-(U1-EN3\u002C4)*%
X98288000Y-63490000D03*
%TO.P,U5,7*%
X98288000Y-60950000D03*
%TO.P,U5,8,V+*%
%TO.N,+5V*%
X98288000Y-58410000D03*
%TD*%
D10*
%TO.P,U4,1*%
%TO.N,Net-(U1-EN1\u002C2)*%
X90678000Y-73660000D03*
D11*
%TO.P,U4,2,-*%
X90678000Y-76200000D03*
%TO.P,U4,3,+*%
%TO.N,M1_SPEED*%
X90678000Y-78740000D03*
%TO.P,U4,4,V-*%
%TO.N,GND*%
X90678000Y-81280000D03*
%TO.P,U4,5,+*%
%TO.N,M2_D1*%
X98298000Y-81280000D03*
%TO.P,U4,6,-*%
%TO.N,Net-(U1-3A)*%
X98298000Y-78740000D03*
%TO.P,U4,7*%
X98298000Y-76200000D03*
%TO.P,U4,8,V+*%
%TO.N,+5V*%
X98298000Y-73660000D03*
%TD*%
D10*
%TO.P,U3,1*%
%TO.N,Net-(U1-1A)*%
X90424000Y-88392000D03*
D11*
%TO.P,U3,2,-*%
X90424000Y-90932000D03*
%TO.P,U3,3,+*%
%TO.N,M1_D1*%
X90424000Y-93472000D03*
%TO.P,U3,4,V-*%
%TO.N,GND*%
X90424000Y-96012000D03*
%TO.P,U3,5,+*%
%TO.N,M1_D2*%
X98044000Y-96012000D03*
%TO.P,U3,6,-*%
%TO.N,Net-(U1-2A)*%
X98044000Y-93472000D03*
%TO.P,U3,7*%
X98044000Y-90932000D03*
%TO.P,U3,8,V+*%
%TO.N,+5V*%
X98044000Y-88392000D03*
%TD*%
D12*
%TO.P,U2,1,IN*%
%TO.N,VCC*%
X133604000Y-45649000D03*
D13*
%TO.P,U2,2,GND*%
%TO.N,GND*%
X136144000Y-45649000D03*
%TO.P,U2,3,OUT*%
%TO.N,+5V*%
X138684000Y-45649000D03*
%TD*%
D10*
%TO.P,U1,1,EN1\u002C2*%
%TO.N,Net-(U1-EN1\u002C2)*%
X120396000Y-69850000D03*
D11*
%TO.P,U1,2,1A*%
%TO.N,Net-(U1-1A)*%
X120396000Y-72390000D03*
%TO.P,U1,3,1Y*%
%TO.N,Net-(D3-K)*%
X120396000Y-74930000D03*
%TO.P,U1,4,GND*%
%TO.N,GND*%
X120396000Y-77470000D03*
%TO.P,U1,5,GND*%
X120396000Y-80010000D03*
%TO.P,U1,6,2Y*%
%TO.N,Net-(D5-K)*%
X120396000Y-82550000D03*
%TO.P,U1,7,2A*%
%TO.N,Net-(U1-2A)*%
X120396000Y-85090000D03*
%TO.P,U1,8,VCC2*%
%TO.N,VCC*%
X120396000Y-87630000D03*
%TO.P,U1,9,EN3\u002C4*%
%TO.N,Net-(U1-EN3\u002C4)*%
X128016000Y-87630000D03*
%TO.P,U1,10,3A*%
%TO.N,Net-(U1-3A)*%
X128016000Y-85090000D03*
%TO.P,U1,11,3Y*%
%TO.N,Net-(D11-K)*%
X128016000Y-82550000D03*
%TO.P,U1,12,GND*%
%TO.N,GND*%
X128016000Y-80010000D03*
%TO.P,U1,13,GND*%
X128016000Y-77470000D03*
%TO.P,U1,14,4Y*%
%TO.N,Net-(D10-A)*%
X128016000Y-74930000D03*
%TO.P,U1,15,4A*%
%TO.N,Net-(U1-4A)*%
X128016000Y-72390000D03*
%TO.P,U1,16,VCC1*%
%TO.N,+5V*%
X128016000Y-69850000D03*
%TD*%
D14*
%TO.P,J5,1,Pin_1*%
%TO.N,+5V*%
X111506000Y-42926000D03*
D15*
%TO.P,J5,2,Pin_2*%
%TO.N,GND*%
X106426000Y-42926000D03*
%TD*%
D16*
%TO.P,J4,1,Pin_1*%
%TO.N,M2_SPEED*%
X78511000Y-58445000D03*
D17*
%TO.P,J4,2,Pin_2*%
%TO.N,M2_D2*%
X78511000Y-60985000D03*
%TO.P,J4,3,Pin_3*%
%TO.N,M2_D1*%
X78511000Y-63525000D03*
%TO.P,J4,4,Pin_4*%
%TO.N,M1_SPEED*%
X78511000Y-66065000D03*
%TO.P,J4,5,Pin_5*%
%TO.N,M1_D2*%
X78511000Y-68605000D03*
%TO.P,J4,6,Pin_6*%
%TO.N,M1_D1*%
X78511000Y-71145000D03*
%TD*%
D14*
%TO.P,J3,1,Pin_1*%
%TO.N,Net-(D11-K)*%
X127762000Y-103378000D03*
D15*
%TO.P,J3,2,Pin_2*%
%TO.N,Net-(D10-A)*%
X132842000Y-103378000D03*
%TD*%
D14*
%TO.P,J2,1,Pin_1*%
%TO.N,Net-(D3-K)*%
X112014000Y-103124000D03*
D15*
%TO.P,J2,2,Pin_2*%
%TO.N,Net-(D5-K)*%
X117094000Y-103124000D03*
%TD*%
D14*
%TO.P,J1,1,Pin_1*%
%TO.N,GND*%
X80010000Y-46990000D03*
D15*
%TO.P,J1,2,Pin_2*%
%TO.N,VCC*%
X80010000Y-52070000D03*
%TD*%
D18*
%TO.P,D12,1,K*%
%TO.N,Net-(D10-A)*%
X140970000Y-76962000D03*
D19*
%TO.P,D12,2,A*%
%TO.N,GND*%
X140970000Y-69342000D03*
%TD*%
%TO.P,D11,2,A*%
%TO.N,GND*%
X134874000Y-69342000D03*
D18*
%TO.P,D11,1,K*%
%TO.N,Net-(D11-K)*%
X134874000Y-76962000D03*
%TD*%
%TO.P,D10,1,K*%
%TO.N,VCC*%
X140970000Y-88646000D03*
D19*
%TO.P,D10,2,A*%
%TO.N,Net-(D10-A)*%
X140970000Y-81026000D03*
%TD*%
%TO.P,D9,2,A*%
%TO.N,Net-(D11-K)*%
X134874000Y-80772000D03*
D18*
%TO.P,D9,1,K*%
%TO.N,VCC*%
X134874000Y-88392000D03*
%TD*%
%TO.P,D6,1,K*%
%TO.N,VCC*%
X107940000Y-76718000D03*
D19*
%TO.P,D6,2,A*%
%TO.N,Net-(D5-K)*%
X107940000Y-69098000D03*
%TD*%
D18*
%TO.P,D5,1,K*%
%TO.N,Net-(D5-K)*%
X108194000Y-87894000D03*
D19*
%TO.P,D5,2,A*%
%TO.N,GND*%
X108194000Y-80274000D03*
%TD*%
D18*
%TO.P,D4,1,K*%
%TO.N,VCC*%
X113528000Y-87894000D03*
D19*
%TO.P,D4,2,A*%
%TO.N,Net-(D3-K)*%
X113528000Y-80274000D03*
%TD*%
D18*
%TO.P,D3,1,K*%
%TO.N,Net-(D3-K)*%
X113528000Y-76718000D03*
D19*
%TO.P,D3,2,A*%
%TO.N,GND*%
X113528000Y-69098000D03*
%TD*%
D20*
%TO.P,C2,1*%
%TO.N,+5V*%
X127334000Y-58420000D03*
%TO.P,C2,2*%
%TO.N,GND*%
X132334000Y-58420000D03*
%TD*%
%TO.P,C1,1*%
%TO.N,VCC*%
X136986000Y-58420000D03*
%TO.P,C1,2*%
%TO.N,GND*%
X141986000Y-58420000D03*
%TD*%
D21*
%TO.N,Net-(U1-3A)*%
X119634000Y-106172000D02*
X119634000Y-93472000D01*
X108966000Y-106680000D02*
X119126000Y-106680000D01*
X119634000Y-93472000D02*
X128016000Y-85090000D01*
X103378000Y-101092000D02*
X108966000Y-106680000D01*
X119126000Y-106680000D02*
X119634000Y-106172000D01*
X103378000Y-82296000D02*
X103378000Y-101092000D01*
X99822000Y-78740000D02*
X103378000Y-82296000D01*
X98298000Y-78740000D02*
X99822000Y-78740000D01*
%TO.N,+5V*%
X128016000Y-59102000D02*
X127334000Y-58420000D01*
X111506000Y-42926000D02*
X135961000Y-42926000D01*
X135961000Y-42926000D02*
X138684000Y-45649000D01*
X128016000Y-69850000D02*
X128016000Y-59102000D01*
X98288000Y-56144000D02*
X111506000Y-42926000D01*
X98288000Y-58410000D02*
X98288000Y-56144000D01*
X127334000Y-58420000D02*
X111840000Y-42926000D01*
X111840000Y-42926000D02*
X111506000Y-42926000D01*
X98298000Y-73660000D02*
X99423000Y-72535000D01*
X99423000Y-72535000D02*
X99423000Y-59545000D01*
X99423000Y-59545000D02*
X98288000Y-58410000D01*
%TO.N,GND*%
X120396000Y-77470000D02*
X128016000Y-77470000D01*
%TO.N,Net-(D5-K)*%
X115269000Y-104949000D02*
X117094000Y-103124000D01*
X109267000Y-104949000D02*
X115269000Y-104949000D01*
X105664000Y-101346000D02*
X109267000Y-104949000D01*
X105664000Y-71374000D02*
X105664000Y-101346000D01*
X107940000Y-69098000D02*
X105664000Y-71374000D01*
%TO.N,GND*%
X108194000Y-78914000D02*
X108194000Y-80274000D01*
X113528000Y-73580000D02*
X108194000Y-78914000D01*
X113528000Y-69098000D02*
X113528000Y-73580000D01*
%TO.N,Net-(D3-K)*%
X106969000Y-86833000D02*
X113528000Y-80274000D01*
X112014000Y-103124000D02*
X106969000Y-98079000D01*
X106969000Y-98079000D02*
X106969000Y-86833000D01*
%TO.N,Net-(D5-K)*%
X117094000Y-96794000D02*
X108194000Y-87894000D01*
X117094000Y-103124000D02*
X117094000Y-96794000D01*
%TO.N,GND*%
X121666000Y-74609009D02*
X121666000Y-76200000D01*
X118235000Y-73805000D02*
X120861991Y-73805000D01*
X121666000Y-76200000D02*
X120396000Y-77470000D01*
X113528000Y-69098000D02*
X118235000Y-73805000D01*
X120861991Y-73805000D02*
X121666000Y-74609009D01*
X126746000Y-74609009D02*
X126746000Y-76200000D01*
X130411000Y-73805000D02*
X127550009Y-73805000D01*
X127550009Y-73805000D02*
X126746000Y-74609009D01*
X126746000Y-76200000D02*
X128016000Y-77470000D01*
X134874000Y-69342000D02*
X130411000Y-73805000D01*
X128016000Y-77470000D02*
X128016000Y-80010000D01*
X120396000Y-77470000D02*
X120396000Y-80010000D01*
%TO.N,VCC*%
X120132000Y-87894000D02*
X120396000Y-87630000D01*
X113528000Y-87894000D02*
X120132000Y-87894000D01*
%TO.N,Net-(D5-K)*%
X108194000Y-87894000D02*
X113538000Y-82550000D01*
X113538000Y-82550000D02*
X120396000Y-82550000D01*
%TO.N,Net-(D3-K)*%
X113528000Y-80274000D02*
X113528000Y-76718000D01*
X118608000Y-76718000D02*
X120396000Y-74930000D01*
X113528000Y-76718000D02*
X118608000Y-76718000D01*
%TO.N,Net-(U1-2A)*%
X98044000Y-90932000D02*
X98044000Y-93472000D01*
%TO.N,Net-(U1-3A)*%
X98298000Y-76200000D02*
X98298000Y-78740000D01*
%TO.N,Net-(U1-EN3\u002C4)*%
X98288000Y-60950000D02*
X98288000Y-63490000D01*
%TO.N,Net-(U1-4A)*%
X90668000Y-60950000D02*
X90668000Y-58410000D01*
%TO.N,Net-(U1-EN1\u002C2)*%
X90678000Y-76200000D02*
X90678000Y-73660000D01*
%TO.N,Net-(U1-1A)*%
X90424000Y-90932000D02*
X90424000Y-88392000D01*
%TO.N,M1_D1*%
X78511000Y-81559000D02*
X90424000Y-93472000D01*
X78511000Y-71145000D02*
X78511000Y-81559000D01*
%TO.N,M1_D2*%
X96919000Y-94887000D02*
X98044000Y-96012000D01*
X96919000Y-92601000D02*
X96919000Y-94887000D01*
X89553000Y-85235000D02*
X96919000Y-92601000D01*
X89553000Y-79647000D02*
X89553000Y-85235000D01*
X78511000Y-68605000D02*
X89553000Y-79647000D01*
%TO.N,M1_SPEED*%
X90678000Y-78232000D02*
X90678000Y-78740000D01*
X78511000Y-66065000D02*
X90678000Y-78232000D01*
%TO.N,M2_D1*%
X97028000Y-77760000D02*
X97028000Y-80010000D01*
X97028000Y-80010000D02*
X98298000Y-81280000D01*
X79361000Y-64375000D02*
X83643000Y-64375000D01*
X78511000Y-63525000D02*
X79361000Y-64375000D01*
X83643000Y-64375000D02*
X97028000Y-77760000D01*
%TO.N,M2_D2*%
X81016000Y-63490000D02*
X90668000Y-63490000D01*
X78511000Y-60985000D02*
X81016000Y-63490000D01*
%TO.N,M2_SPEED*%
X94488000Y-62230000D02*
X98288000Y-66030000D01*
X82296000Y-62230000D02*
X94488000Y-62230000D01*
X78511000Y-58445000D02*
X82296000Y-62230000D01*
%TO.N,Net-(D11-K)*%
X129141000Y-83675000D02*
X129141000Y-101999000D01*
X128016000Y-82550000D02*
X129141000Y-83675000D01*
X129141000Y-101999000D02*
X127762000Y-103378000D01*
%TO.N,VCC*%
X135128000Y-88646000D02*
X134874000Y-88392000D01*
X140970000Y-88646000D02*
X135128000Y-88646000D01*
%TO.N,Net-(D10-A)*%
X143764000Y-92456000D02*
X143764000Y-83820000D01*
X132842000Y-103378000D02*
X143764000Y-92456000D01*
X143764000Y-83820000D02*
X140970000Y-81026000D01*
%TO.N,Net-(D11-K)*%
X129794000Y-80772000D02*
X128016000Y-82550000D01*
X134874000Y-80772000D02*
X129794000Y-80772000D01*
%TO.N,Net-(D10-A)*%
X138938000Y-74930000D02*
X128016000Y-74930000D01*
X140970000Y-76962000D02*
X138938000Y-74930000D01*
X140970000Y-76962000D02*
X140970000Y-81026000D01*
%TO.N,Net-(D11-K)*%
X134874000Y-76962000D02*
X134874000Y-80772000D01*
%TO.N,GND*%
X132334000Y-66802000D02*
X134874000Y-69342000D01*
X132334000Y-58420000D02*
X132334000Y-66802000D01*
X134874000Y-69342000D02*
X140970000Y-69342000D01*
X141986000Y-68326000D02*
X141986000Y-58420000D01*
X140970000Y-69342000D02*
X141986000Y-68326000D01*
X136144000Y-52578000D02*
X141986000Y-58420000D01*
X136144000Y-45649000D02*
X136144000Y-52578000D01*
%TO.N,VCC*%
X133604000Y-55038000D02*
X136986000Y-58420000D01*
X133604000Y-45649000D02*
X133604000Y-55038000D01*
%TO.N,GND*%
X102362000Y-46990000D02*
X106426000Y-42926000D01*
X80010000Y-46990000D02*
X102362000Y-46990000D01*
%TD*%
M02*
