%TF.GenerationSoftware,KiCad,Pcbnew,7.0.2*%
%TF.CreationDate,2023-10-11T17:53:06-05:00*%
%TF.ProjectId,motor_driver,6d6f746f-725f-4647-9269-7665722e6b69,rev?*%
%TF.SameCoordinates,Original*%
%TF.FileFunction,Soldermask,Top*%
%TF.FilePolarity,Negative*%
%FSLAX46Y46*%
G04 Gerber Fmt 4.6, Leading zero omitted, Abs format (unit mm)*
G04 Created by KiCad (PCBNEW 7.0.2) date 2023-10-11 17:53:06*
%MOMM*%
%LPD*%
G01*
G04 APERTURE LIST*
%ADD10R,1.600000X1.600000*%
%ADD11O,1.600000X1.600000*%
%ADD12R,1.905000X2.000000*%
%ADD13O,1.905000X2.000000*%
%ADD14R,3.000000X3.000000*%
%ADD15C,3.000000*%
%ADD16R,1.700000X1.700000*%
%ADD17O,1.700000X1.700000*%
%ADD18R,1.800000X1.800000*%
%ADD19O,1.800000X1.800000*%
%ADD20C,1.600000*%
G04 APERTURE END LIST*
D10*
%TO.C,U5*%
X90668000Y-58410000D03*
D11*
X90668000Y-60950000D03*
X90668000Y-63490000D03*
X90668000Y-66030000D03*
X98288000Y-66030000D03*
X98288000Y-63490000D03*
X98288000Y-60950000D03*
X98288000Y-58410000D03*
%TD*%
D10*
%TO.C,U4*%
X90678000Y-73660000D03*
D11*
X90678000Y-76200000D03*
X90678000Y-78740000D03*
X90678000Y-81280000D03*
X98298000Y-81280000D03*
X98298000Y-78740000D03*
X98298000Y-76200000D03*
X98298000Y-73660000D03*
%TD*%
D10*
%TO.C,U3*%
X90424000Y-88392000D03*
D11*
X90424000Y-90932000D03*
X90424000Y-93472000D03*
X90424000Y-96012000D03*
X98044000Y-96012000D03*
X98044000Y-93472000D03*
X98044000Y-90932000D03*
X98044000Y-88392000D03*
%TD*%
D12*
%TO.C,U2*%
X133604000Y-45649000D03*
D13*
X136144000Y-45649000D03*
X138684000Y-45649000D03*
%TD*%
D10*
%TO.C,U1*%
X120396000Y-69850000D03*
D11*
X120396000Y-72390000D03*
X120396000Y-74930000D03*
X120396000Y-77470000D03*
X120396000Y-80010000D03*
X120396000Y-82550000D03*
X120396000Y-85090000D03*
X120396000Y-87630000D03*
X128016000Y-87630000D03*
X128016000Y-85090000D03*
X128016000Y-82550000D03*
X128016000Y-80010000D03*
X128016000Y-77470000D03*
X128016000Y-74930000D03*
X128016000Y-72390000D03*
X128016000Y-69850000D03*
%TD*%
D14*
%TO.C,J5*%
X111506000Y-42926000D03*
D15*
X106426000Y-42926000D03*
%TD*%
D16*
%TO.C,J4*%
X78511000Y-58445000D03*
D17*
X78511000Y-60985000D03*
X78511000Y-63525000D03*
X78511000Y-66065000D03*
X78511000Y-68605000D03*
X78511000Y-71145000D03*
%TD*%
D14*
%TO.C,J3*%
X127762000Y-103378000D03*
D15*
X132842000Y-103378000D03*
%TD*%
D14*
%TO.C,J2*%
X112014000Y-103124000D03*
D15*
X117094000Y-103124000D03*
%TD*%
D14*
%TO.C,J1*%
X80010000Y-46990000D03*
D15*
X80010000Y-52070000D03*
%TD*%
D18*
%TO.C,D12*%
X140970000Y-76962000D03*
D19*
X140970000Y-69342000D03*
%TD*%
%TO.C,D11*%
X134874000Y-69342000D03*
D18*
X134874000Y-76962000D03*
%TD*%
%TO.C,D10*%
X140970000Y-88646000D03*
D19*
X140970000Y-81026000D03*
%TD*%
%TO.C,D9*%
X134874000Y-80772000D03*
D18*
X134874000Y-88392000D03*
%TD*%
%TO.C,D6*%
X107940000Y-76718000D03*
D19*
X107940000Y-69098000D03*
%TD*%
D18*
%TO.C,D5*%
X108194000Y-87894000D03*
D19*
X108194000Y-80274000D03*
%TD*%
D18*
%TO.C,D4*%
X113528000Y-87894000D03*
D19*
X113528000Y-80274000D03*
%TD*%
D18*
%TO.C,D3*%
X113528000Y-76718000D03*
D19*
X113528000Y-69098000D03*
%TD*%
D20*
%TO.C,C2*%
X127334000Y-58420000D03*
X132334000Y-58420000D03*
%TD*%
%TO.C,C1*%
X136986000Y-58420000D03*
X141986000Y-58420000D03*
%TD*%
M02*
