%TF.GenerationSoftware,KiCad,Pcbnew,7.0.2*%
%TF.CreationDate,2023-10-11T17:53:06-05:00*%
%TF.ProjectId,motor_driver,6d6f746f-725f-4647-9269-7665722e6b69,rev?*%
%TF.SameCoordinates,Original*%
%TF.FileFunction,Legend,Top*%
%TF.FilePolarity,Positive*%
%FSLAX46Y46*%
G04 Gerber Fmt 4.6, Leading zero omitted, Abs format (unit mm)*
G04 Created by KiCad (PCBNEW 7.0.2) date 2023-10-11 17:53:06*
%MOMM*%
%LPD*%
G01*
G04 APERTURE LIST*
%ADD10C,0.150000*%
%ADD11C,0.120000*%
G04 APERTURE END LIST*
D10*
%TO.C,U5*%
X93716095Y-55542619D02*
X93716095Y-56352142D01*
X93716095Y-56352142D02*
X93763714Y-56447380D01*
X93763714Y-56447380D02*
X93811333Y-56495000D01*
X93811333Y-56495000D02*
X93906571Y-56542619D01*
X93906571Y-56542619D02*
X94097047Y-56542619D01*
X94097047Y-56542619D02*
X94192285Y-56495000D01*
X94192285Y-56495000D02*
X94239904Y-56447380D01*
X94239904Y-56447380D02*
X94287523Y-56352142D01*
X94287523Y-56352142D02*
X94287523Y-55542619D01*
X95239904Y-55542619D02*
X94763714Y-55542619D01*
X94763714Y-55542619D02*
X94716095Y-56018809D01*
X94716095Y-56018809D02*
X94763714Y-55971190D01*
X94763714Y-55971190D02*
X94858952Y-55923571D01*
X94858952Y-55923571D02*
X95097047Y-55923571D01*
X95097047Y-55923571D02*
X95192285Y-55971190D01*
X95192285Y-55971190D02*
X95239904Y-56018809D01*
X95239904Y-56018809D02*
X95287523Y-56114047D01*
X95287523Y-56114047D02*
X95287523Y-56352142D01*
X95287523Y-56352142D02*
X95239904Y-56447380D01*
X95239904Y-56447380D02*
X95192285Y-56495000D01*
X95192285Y-56495000D02*
X95097047Y-56542619D01*
X95097047Y-56542619D02*
X94858952Y-56542619D01*
X94858952Y-56542619D02*
X94763714Y-56495000D01*
X94763714Y-56495000D02*
X94716095Y-56447380D01*
%TO.C,U4*%
X93726095Y-70792619D02*
X93726095Y-71602142D01*
X93726095Y-71602142D02*
X93773714Y-71697380D01*
X93773714Y-71697380D02*
X93821333Y-71745000D01*
X93821333Y-71745000D02*
X93916571Y-71792619D01*
X93916571Y-71792619D02*
X94107047Y-71792619D01*
X94107047Y-71792619D02*
X94202285Y-71745000D01*
X94202285Y-71745000D02*
X94249904Y-71697380D01*
X94249904Y-71697380D02*
X94297523Y-71602142D01*
X94297523Y-71602142D02*
X94297523Y-70792619D01*
X95202285Y-71125952D02*
X95202285Y-71792619D01*
X94964190Y-70745000D02*
X94726095Y-71459285D01*
X94726095Y-71459285D02*
X95345142Y-71459285D01*
%TO.C,U3*%
X93472095Y-85524619D02*
X93472095Y-86334142D01*
X93472095Y-86334142D02*
X93519714Y-86429380D01*
X93519714Y-86429380D02*
X93567333Y-86477000D01*
X93567333Y-86477000D02*
X93662571Y-86524619D01*
X93662571Y-86524619D02*
X93853047Y-86524619D01*
X93853047Y-86524619D02*
X93948285Y-86477000D01*
X93948285Y-86477000D02*
X93995904Y-86429380D01*
X93995904Y-86429380D02*
X94043523Y-86334142D01*
X94043523Y-86334142D02*
X94043523Y-85524619D01*
X94424476Y-85524619D02*
X95043523Y-85524619D01*
X95043523Y-85524619D02*
X94710190Y-85905571D01*
X94710190Y-85905571D02*
X94853047Y-85905571D01*
X94853047Y-85905571D02*
X94948285Y-85953190D01*
X94948285Y-85953190D02*
X94995904Y-86000809D01*
X94995904Y-86000809D02*
X95043523Y-86096047D01*
X95043523Y-86096047D02*
X95043523Y-86334142D01*
X95043523Y-86334142D02*
X94995904Y-86429380D01*
X94995904Y-86429380D02*
X94948285Y-86477000D01*
X94948285Y-86477000D02*
X94853047Y-86524619D01*
X94853047Y-86524619D02*
X94567333Y-86524619D01*
X94567333Y-86524619D02*
X94472095Y-86477000D01*
X94472095Y-86477000D02*
X94424476Y-86429380D01*
%TO.C,U2*%
X135382095Y-40841619D02*
X135382095Y-41651142D01*
X135382095Y-41651142D02*
X135429714Y-41746380D01*
X135429714Y-41746380D02*
X135477333Y-41794000D01*
X135477333Y-41794000D02*
X135572571Y-41841619D01*
X135572571Y-41841619D02*
X135763047Y-41841619D01*
X135763047Y-41841619D02*
X135858285Y-41794000D01*
X135858285Y-41794000D02*
X135905904Y-41746380D01*
X135905904Y-41746380D02*
X135953523Y-41651142D01*
X135953523Y-41651142D02*
X135953523Y-40841619D01*
X136382095Y-40936857D02*
X136429714Y-40889238D01*
X136429714Y-40889238D02*
X136524952Y-40841619D01*
X136524952Y-40841619D02*
X136763047Y-40841619D01*
X136763047Y-40841619D02*
X136858285Y-40889238D01*
X136858285Y-40889238D02*
X136905904Y-40936857D01*
X136905904Y-40936857D02*
X136953523Y-41032095D01*
X136953523Y-41032095D02*
X136953523Y-41127333D01*
X136953523Y-41127333D02*
X136905904Y-41270190D01*
X136905904Y-41270190D02*
X136334476Y-41841619D01*
X136334476Y-41841619D02*
X136953523Y-41841619D01*
%TO.C,U1*%
X123444095Y-66982619D02*
X123444095Y-67792142D01*
X123444095Y-67792142D02*
X123491714Y-67887380D01*
X123491714Y-67887380D02*
X123539333Y-67935000D01*
X123539333Y-67935000D02*
X123634571Y-67982619D01*
X123634571Y-67982619D02*
X123825047Y-67982619D01*
X123825047Y-67982619D02*
X123920285Y-67935000D01*
X123920285Y-67935000D02*
X123967904Y-67887380D01*
X123967904Y-67887380D02*
X124015523Y-67792142D01*
X124015523Y-67792142D02*
X124015523Y-66982619D01*
X125015523Y-67982619D02*
X124444095Y-67982619D01*
X124729809Y-67982619D02*
X124729809Y-66982619D01*
X124729809Y-66982619D02*
X124634571Y-67125476D01*
X124634571Y-67125476D02*
X124539333Y-67220714D01*
X124539333Y-67220714D02*
X124444095Y-67268333D01*
%TO.C,J5*%
X108632666Y-47468619D02*
X108632666Y-48182904D01*
X108632666Y-48182904D02*
X108585047Y-48325761D01*
X108585047Y-48325761D02*
X108489809Y-48421000D01*
X108489809Y-48421000D02*
X108346952Y-48468619D01*
X108346952Y-48468619D02*
X108251714Y-48468619D01*
X109585047Y-47468619D02*
X109108857Y-47468619D01*
X109108857Y-47468619D02*
X109061238Y-47944809D01*
X109061238Y-47944809D02*
X109108857Y-47897190D01*
X109108857Y-47897190D02*
X109204095Y-47849571D01*
X109204095Y-47849571D02*
X109442190Y-47849571D01*
X109442190Y-47849571D02*
X109537428Y-47897190D01*
X109537428Y-47897190D02*
X109585047Y-47944809D01*
X109585047Y-47944809D02*
X109632666Y-48040047D01*
X109632666Y-48040047D02*
X109632666Y-48278142D01*
X109632666Y-48278142D02*
X109585047Y-48373380D01*
X109585047Y-48373380D02*
X109537428Y-48421000D01*
X109537428Y-48421000D02*
X109442190Y-48468619D01*
X109442190Y-48468619D02*
X109204095Y-48468619D01*
X109204095Y-48468619D02*
X109108857Y-48421000D01*
X109108857Y-48421000D02*
X109061238Y-48373380D01*
%TO.C,J4*%
X78177666Y-55137619D02*
X78177666Y-55851904D01*
X78177666Y-55851904D02*
X78130047Y-55994761D01*
X78130047Y-55994761D02*
X78034809Y-56090000D01*
X78034809Y-56090000D02*
X77891952Y-56137619D01*
X77891952Y-56137619D02*
X77796714Y-56137619D01*
X79082428Y-55470952D02*
X79082428Y-56137619D01*
X78844333Y-55090000D02*
X78606238Y-55804285D01*
X78606238Y-55804285D02*
X79225285Y-55804285D01*
%TO.C,J3*%
X129968666Y-97760619D02*
X129968666Y-98474904D01*
X129968666Y-98474904D02*
X129921047Y-98617761D01*
X129921047Y-98617761D02*
X129825809Y-98713000D01*
X129825809Y-98713000D02*
X129682952Y-98760619D01*
X129682952Y-98760619D02*
X129587714Y-98760619D01*
X130349619Y-97760619D02*
X130968666Y-97760619D01*
X130968666Y-97760619D02*
X130635333Y-98141571D01*
X130635333Y-98141571D02*
X130778190Y-98141571D01*
X130778190Y-98141571D02*
X130873428Y-98189190D01*
X130873428Y-98189190D02*
X130921047Y-98236809D01*
X130921047Y-98236809D02*
X130968666Y-98332047D01*
X130968666Y-98332047D02*
X130968666Y-98570142D01*
X130968666Y-98570142D02*
X130921047Y-98665380D01*
X130921047Y-98665380D02*
X130873428Y-98713000D01*
X130873428Y-98713000D02*
X130778190Y-98760619D01*
X130778190Y-98760619D02*
X130492476Y-98760619D01*
X130492476Y-98760619D02*
X130397238Y-98713000D01*
X130397238Y-98713000D02*
X130349619Y-98665380D01*
%TO.C,J2*%
X114220666Y-97506619D02*
X114220666Y-98220904D01*
X114220666Y-98220904D02*
X114173047Y-98363761D01*
X114173047Y-98363761D02*
X114077809Y-98459000D01*
X114077809Y-98459000D02*
X113934952Y-98506619D01*
X113934952Y-98506619D02*
X113839714Y-98506619D01*
X114649238Y-97601857D02*
X114696857Y-97554238D01*
X114696857Y-97554238D02*
X114792095Y-97506619D01*
X114792095Y-97506619D02*
X115030190Y-97506619D01*
X115030190Y-97506619D02*
X115125428Y-97554238D01*
X115125428Y-97554238D02*
X115173047Y-97601857D01*
X115173047Y-97601857D02*
X115220666Y-97697095D01*
X115220666Y-97697095D02*
X115220666Y-97792333D01*
X115220666Y-97792333D02*
X115173047Y-97935190D01*
X115173047Y-97935190D02*
X114601619Y-98506619D01*
X114601619Y-98506619D02*
X115220666Y-98506619D01*
%TO.C,J1*%
X84552619Y-49863333D02*
X85266904Y-49863333D01*
X85266904Y-49863333D02*
X85409761Y-49910952D01*
X85409761Y-49910952D02*
X85505000Y-50006190D01*
X85505000Y-50006190D02*
X85552619Y-50149047D01*
X85552619Y-50149047D02*
X85552619Y-50244285D01*
X85552619Y-48863333D02*
X85552619Y-49434761D01*
X85552619Y-49149047D02*
X84552619Y-49149047D01*
X84552619Y-49149047D02*
X84695476Y-49244285D01*
X84695476Y-49244285D02*
X84790714Y-49339523D01*
X84790714Y-49339523D02*
X84838333Y-49434761D01*
%TO.C,D12*%
X138962619Y-74366285D02*
X137962619Y-74366285D01*
X137962619Y-74366285D02*
X137962619Y-74128190D01*
X137962619Y-74128190D02*
X138010238Y-73985333D01*
X138010238Y-73985333D02*
X138105476Y-73890095D01*
X138105476Y-73890095D02*
X138200714Y-73842476D01*
X138200714Y-73842476D02*
X138391190Y-73794857D01*
X138391190Y-73794857D02*
X138534047Y-73794857D01*
X138534047Y-73794857D02*
X138724523Y-73842476D01*
X138724523Y-73842476D02*
X138819761Y-73890095D01*
X138819761Y-73890095D02*
X138915000Y-73985333D01*
X138915000Y-73985333D02*
X138962619Y-74128190D01*
X138962619Y-74128190D02*
X138962619Y-74366285D01*
X138962619Y-72842476D02*
X138962619Y-73413904D01*
X138962619Y-73128190D02*
X137962619Y-73128190D01*
X137962619Y-73128190D02*
X138105476Y-73223428D01*
X138105476Y-73223428D02*
X138200714Y-73318666D01*
X138200714Y-73318666D02*
X138248333Y-73413904D01*
X138057857Y-72461523D02*
X138010238Y-72413904D01*
X138010238Y-72413904D02*
X137962619Y-72318666D01*
X137962619Y-72318666D02*
X137962619Y-72080571D01*
X137962619Y-72080571D02*
X138010238Y-71985333D01*
X138010238Y-71985333D02*
X138057857Y-71937714D01*
X138057857Y-71937714D02*
X138153095Y-71890095D01*
X138153095Y-71890095D02*
X138248333Y-71890095D01*
X138248333Y-71890095D02*
X138391190Y-71937714D01*
X138391190Y-71937714D02*
X138962619Y-72509142D01*
X138962619Y-72509142D02*
X138962619Y-71890095D01*
X139532619Y-77223904D02*
X138532619Y-77223904D01*
X139532619Y-76652476D02*
X138961190Y-77081047D01*
X138532619Y-76652476D02*
X139104047Y-77223904D01*
%TO.C,D11*%
X132866619Y-74366285D02*
X131866619Y-74366285D01*
X131866619Y-74366285D02*
X131866619Y-74128190D01*
X131866619Y-74128190D02*
X131914238Y-73985333D01*
X131914238Y-73985333D02*
X132009476Y-73890095D01*
X132009476Y-73890095D02*
X132104714Y-73842476D01*
X132104714Y-73842476D02*
X132295190Y-73794857D01*
X132295190Y-73794857D02*
X132438047Y-73794857D01*
X132438047Y-73794857D02*
X132628523Y-73842476D01*
X132628523Y-73842476D02*
X132723761Y-73890095D01*
X132723761Y-73890095D02*
X132819000Y-73985333D01*
X132819000Y-73985333D02*
X132866619Y-74128190D01*
X132866619Y-74128190D02*
X132866619Y-74366285D01*
X132866619Y-72842476D02*
X132866619Y-73413904D01*
X132866619Y-73128190D02*
X131866619Y-73128190D01*
X131866619Y-73128190D02*
X132009476Y-73223428D01*
X132009476Y-73223428D02*
X132104714Y-73318666D01*
X132104714Y-73318666D02*
X132152333Y-73413904D01*
X132866619Y-71890095D02*
X132866619Y-72461523D01*
X132866619Y-72175809D02*
X131866619Y-72175809D01*
X131866619Y-72175809D02*
X132009476Y-72271047D01*
X132009476Y-72271047D02*
X132104714Y-72366285D01*
X132104714Y-72366285D02*
X132152333Y-72461523D01*
X133436619Y-77223904D02*
X132436619Y-77223904D01*
X133436619Y-76652476D02*
X132865190Y-77081047D01*
X132436619Y-76652476D02*
X133008047Y-77223904D01*
%TO.C,D10*%
X138962619Y-86050285D02*
X137962619Y-86050285D01*
X137962619Y-86050285D02*
X137962619Y-85812190D01*
X137962619Y-85812190D02*
X138010238Y-85669333D01*
X138010238Y-85669333D02*
X138105476Y-85574095D01*
X138105476Y-85574095D02*
X138200714Y-85526476D01*
X138200714Y-85526476D02*
X138391190Y-85478857D01*
X138391190Y-85478857D02*
X138534047Y-85478857D01*
X138534047Y-85478857D02*
X138724523Y-85526476D01*
X138724523Y-85526476D02*
X138819761Y-85574095D01*
X138819761Y-85574095D02*
X138915000Y-85669333D01*
X138915000Y-85669333D02*
X138962619Y-85812190D01*
X138962619Y-85812190D02*
X138962619Y-86050285D01*
X138962619Y-84526476D02*
X138962619Y-85097904D01*
X138962619Y-84812190D02*
X137962619Y-84812190D01*
X137962619Y-84812190D02*
X138105476Y-84907428D01*
X138105476Y-84907428D02*
X138200714Y-85002666D01*
X138200714Y-85002666D02*
X138248333Y-85097904D01*
X137962619Y-83907428D02*
X137962619Y-83812190D01*
X137962619Y-83812190D02*
X138010238Y-83716952D01*
X138010238Y-83716952D02*
X138057857Y-83669333D01*
X138057857Y-83669333D02*
X138153095Y-83621714D01*
X138153095Y-83621714D02*
X138343571Y-83574095D01*
X138343571Y-83574095D02*
X138581666Y-83574095D01*
X138581666Y-83574095D02*
X138772142Y-83621714D01*
X138772142Y-83621714D02*
X138867380Y-83669333D01*
X138867380Y-83669333D02*
X138915000Y-83716952D01*
X138915000Y-83716952D02*
X138962619Y-83812190D01*
X138962619Y-83812190D02*
X138962619Y-83907428D01*
X138962619Y-83907428D02*
X138915000Y-84002666D01*
X138915000Y-84002666D02*
X138867380Y-84050285D01*
X138867380Y-84050285D02*
X138772142Y-84097904D01*
X138772142Y-84097904D02*
X138581666Y-84145523D01*
X138581666Y-84145523D02*
X138343571Y-84145523D01*
X138343571Y-84145523D02*
X138153095Y-84097904D01*
X138153095Y-84097904D02*
X138057857Y-84050285D01*
X138057857Y-84050285D02*
X138010238Y-84002666D01*
X138010238Y-84002666D02*
X137962619Y-83907428D01*
X139532619Y-88907904D02*
X138532619Y-88907904D01*
X139532619Y-88336476D02*
X138961190Y-88765047D01*
X138532619Y-88336476D02*
X139104047Y-88907904D01*
%TO.C,D9*%
X132866619Y-85320094D02*
X131866619Y-85320094D01*
X131866619Y-85320094D02*
X131866619Y-85081999D01*
X131866619Y-85081999D02*
X131914238Y-84939142D01*
X131914238Y-84939142D02*
X132009476Y-84843904D01*
X132009476Y-84843904D02*
X132104714Y-84796285D01*
X132104714Y-84796285D02*
X132295190Y-84748666D01*
X132295190Y-84748666D02*
X132438047Y-84748666D01*
X132438047Y-84748666D02*
X132628523Y-84796285D01*
X132628523Y-84796285D02*
X132723761Y-84843904D01*
X132723761Y-84843904D02*
X132819000Y-84939142D01*
X132819000Y-84939142D02*
X132866619Y-85081999D01*
X132866619Y-85081999D02*
X132866619Y-85320094D01*
X132866619Y-84272475D02*
X132866619Y-84081999D01*
X132866619Y-84081999D02*
X132819000Y-83986761D01*
X132819000Y-83986761D02*
X132771380Y-83939142D01*
X132771380Y-83939142D02*
X132628523Y-83843904D01*
X132628523Y-83843904D02*
X132438047Y-83796285D01*
X132438047Y-83796285D02*
X132057095Y-83796285D01*
X132057095Y-83796285D02*
X131961857Y-83843904D01*
X131961857Y-83843904D02*
X131914238Y-83891523D01*
X131914238Y-83891523D02*
X131866619Y-83986761D01*
X131866619Y-83986761D02*
X131866619Y-84177237D01*
X131866619Y-84177237D02*
X131914238Y-84272475D01*
X131914238Y-84272475D02*
X131961857Y-84320094D01*
X131961857Y-84320094D02*
X132057095Y-84367713D01*
X132057095Y-84367713D02*
X132295190Y-84367713D01*
X132295190Y-84367713D02*
X132390428Y-84320094D01*
X132390428Y-84320094D02*
X132438047Y-84272475D01*
X132438047Y-84272475D02*
X132485666Y-84177237D01*
X132485666Y-84177237D02*
X132485666Y-83986761D01*
X132485666Y-83986761D02*
X132438047Y-83891523D01*
X132438047Y-83891523D02*
X132390428Y-83843904D01*
X132390428Y-83843904D02*
X132295190Y-83796285D01*
X133436619Y-88653904D02*
X132436619Y-88653904D01*
X133436619Y-88082476D02*
X132865190Y-88511047D01*
X132436619Y-88082476D02*
X133008047Y-88653904D01*
%TO.C,D6*%
X105932619Y-73646094D02*
X104932619Y-73646094D01*
X104932619Y-73646094D02*
X104932619Y-73407999D01*
X104932619Y-73407999D02*
X104980238Y-73265142D01*
X104980238Y-73265142D02*
X105075476Y-73169904D01*
X105075476Y-73169904D02*
X105170714Y-73122285D01*
X105170714Y-73122285D02*
X105361190Y-73074666D01*
X105361190Y-73074666D02*
X105504047Y-73074666D01*
X105504047Y-73074666D02*
X105694523Y-73122285D01*
X105694523Y-73122285D02*
X105789761Y-73169904D01*
X105789761Y-73169904D02*
X105885000Y-73265142D01*
X105885000Y-73265142D02*
X105932619Y-73407999D01*
X105932619Y-73407999D02*
X105932619Y-73646094D01*
X104932619Y-72217523D02*
X104932619Y-72407999D01*
X104932619Y-72407999D02*
X104980238Y-72503237D01*
X104980238Y-72503237D02*
X105027857Y-72550856D01*
X105027857Y-72550856D02*
X105170714Y-72646094D01*
X105170714Y-72646094D02*
X105361190Y-72693713D01*
X105361190Y-72693713D02*
X105742142Y-72693713D01*
X105742142Y-72693713D02*
X105837380Y-72646094D01*
X105837380Y-72646094D02*
X105885000Y-72598475D01*
X105885000Y-72598475D02*
X105932619Y-72503237D01*
X105932619Y-72503237D02*
X105932619Y-72312761D01*
X105932619Y-72312761D02*
X105885000Y-72217523D01*
X105885000Y-72217523D02*
X105837380Y-72169904D01*
X105837380Y-72169904D02*
X105742142Y-72122285D01*
X105742142Y-72122285D02*
X105504047Y-72122285D01*
X105504047Y-72122285D02*
X105408809Y-72169904D01*
X105408809Y-72169904D02*
X105361190Y-72217523D01*
X105361190Y-72217523D02*
X105313571Y-72312761D01*
X105313571Y-72312761D02*
X105313571Y-72503237D01*
X105313571Y-72503237D02*
X105361190Y-72598475D01*
X105361190Y-72598475D02*
X105408809Y-72646094D01*
X105408809Y-72646094D02*
X105504047Y-72693713D01*
X106502619Y-76979904D02*
X105502619Y-76979904D01*
X106502619Y-76408476D02*
X105931190Y-76837047D01*
X105502619Y-76408476D02*
X106074047Y-76979904D01*
%TO.C,D5*%
X106186619Y-84822094D02*
X105186619Y-84822094D01*
X105186619Y-84822094D02*
X105186619Y-84583999D01*
X105186619Y-84583999D02*
X105234238Y-84441142D01*
X105234238Y-84441142D02*
X105329476Y-84345904D01*
X105329476Y-84345904D02*
X105424714Y-84298285D01*
X105424714Y-84298285D02*
X105615190Y-84250666D01*
X105615190Y-84250666D02*
X105758047Y-84250666D01*
X105758047Y-84250666D02*
X105948523Y-84298285D01*
X105948523Y-84298285D02*
X106043761Y-84345904D01*
X106043761Y-84345904D02*
X106139000Y-84441142D01*
X106139000Y-84441142D02*
X106186619Y-84583999D01*
X106186619Y-84583999D02*
X106186619Y-84822094D01*
X105186619Y-83345904D02*
X105186619Y-83822094D01*
X105186619Y-83822094D02*
X105662809Y-83869713D01*
X105662809Y-83869713D02*
X105615190Y-83822094D01*
X105615190Y-83822094D02*
X105567571Y-83726856D01*
X105567571Y-83726856D02*
X105567571Y-83488761D01*
X105567571Y-83488761D02*
X105615190Y-83393523D01*
X105615190Y-83393523D02*
X105662809Y-83345904D01*
X105662809Y-83345904D02*
X105758047Y-83298285D01*
X105758047Y-83298285D02*
X105996142Y-83298285D01*
X105996142Y-83298285D02*
X106091380Y-83345904D01*
X106091380Y-83345904D02*
X106139000Y-83393523D01*
X106139000Y-83393523D02*
X106186619Y-83488761D01*
X106186619Y-83488761D02*
X106186619Y-83726856D01*
X106186619Y-83726856D02*
X106139000Y-83822094D01*
X106139000Y-83822094D02*
X106091380Y-83869713D01*
X106756619Y-88155904D02*
X105756619Y-88155904D01*
X106756619Y-87584476D02*
X106185190Y-88013047D01*
X105756619Y-87584476D02*
X106328047Y-88155904D01*
%TO.C,D4*%
X111520619Y-84822094D02*
X110520619Y-84822094D01*
X110520619Y-84822094D02*
X110520619Y-84583999D01*
X110520619Y-84583999D02*
X110568238Y-84441142D01*
X110568238Y-84441142D02*
X110663476Y-84345904D01*
X110663476Y-84345904D02*
X110758714Y-84298285D01*
X110758714Y-84298285D02*
X110949190Y-84250666D01*
X110949190Y-84250666D02*
X111092047Y-84250666D01*
X111092047Y-84250666D02*
X111282523Y-84298285D01*
X111282523Y-84298285D02*
X111377761Y-84345904D01*
X111377761Y-84345904D02*
X111473000Y-84441142D01*
X111473000Y-84441142D02*
X111520619Y-84583999D01*
X111520619Y-84583999D02*
X111520619Y-84822094D01*
X110853952Y-83393523D02*
X111520619Y-83393523D01*
X110473000Y-83631618D02*
X111187285Y-83869713D01*
X111187285Y-83869713D02*
X111187285Y-83250666D01*
X112090619Y-88155904D02*
X111090619Y-88155904D01*
X112090619Y-87584476D02*
X111519190Y-88013047D01*
X111090619Y-87584476D02*
X111662047Y-88155904D01*
%TO.C,D3*%
X111520619Y-73646094D02*
X110520619Y-73646094D01*
X110520619Y-73646094D02*
X110520619Y-73407999D01*
X110520619Y-73407999D02*
X110568238Y-73265142D01*
X110568238Y-73265142D02*
X110663476Y-73169904D01*
X110663476Y-73169904D02*
X110758714Y-73122285D01*
X110758714Y-73122285D02*
X110949190Y-73074666D01*
X110949190Y-73074666D02*
X111092047Y-73074666D01*
X111092047Y-73074666D02*
X111282523Y-73122285D01*
X111282523Y-73122285D02*
X111377761Y-73169904D01*
X111377761Y-73169904D02*
X111473000Y-73265142D01*
X111473000Y-73265142D02*
X111520619Y-73407999D01*
X111520619Y-73407999D02*
X111520619Y-73646094D01*
X110520619Y-72741332D02*
X110520619Y-72122285D01*
X110520619Y-72122285D02*
X110901571Y-72455618D01*
X110901571Y-72455618D02*
X110901571Y-72312761D01*
X110901571Y-72312761D02*
X110949190Y-72217523D01*
X110949190Y-72217523D02*
X110996809Y-72169904D01*
X110996809Y-72169904D02*
X111092047Y-72122285D01*
X111092047Y-72122285D02*
X111330142Y-72122285D01*
X111330142Y-72122285D02*
X111425380Y-72169904D01*
X111425380Y-72169904D02*
X111473000Y-72217523D01*
X111473000Y-72217523D02*
X111520619Y-72312761D01*
X111520619Y-72312761D02*
X111520619Y-72598475D01*
X111520619Y-72598475D02*
X111473000Y-72693713D01*
X111473000Y-72693713D02*
X111425380Y-72741332D01*
X112090619Y-76979904D02*
X111090619Y-76979904D01*
X112090619Y-76408476D02*
X111519190Y-76837047D01*
X111090619Y-76408476D02*
X111662047Y-76979904D01*
%TO.C,C2*%
X129667333Y-55937380D02*
X129619714Y-55985000D01*
X129619714Y-55985000D02*
X129476857Y-56032619D01*
X129476857Y-56032619D02*
X129381619Y-56032619D01*
X129381619Y-56032619D02*
X129238762Y-55985000D01*
X129238762Y-55985000D02*
X129143524Y-55889761D01*
X129143524Y-55889761D02*
X129095905Y-55794523D01*
X129095905Y-55794523D02*
X129048286Y-55604047D01*
X129048286Y-55604047D02*
X129048286Y-55461190D01*
X129048286Y-55461190D02*
X129095905Y-55270714D01*
X129095905Y-55270714D02*
X129143524Y-55175476D01*
X129143524Y-55175476D02*
X129238762Y-55080238D01*
X129238762Y-55080238D02*
X129381619Y-55032619D01*
X129381619Y-55032619D02*
X129476857Y-55032619D01*
X129476857Y-55032619D02*
X129619714Y-55080238D01*
X129619714Y-55080238D02*
X129667333Y-55127857D01*
X130048286Y-55127857D02*
X130095905Y-55080238D01*
X130095905Y-55080238D02*
X130191143Y-55032619D01*
X130191143Y-55032619D02*
X130429238Y-55032619D01*
X130429238Y-55032619D02*
X130524476Y-55080238D01*
X130524476Y-55080238D02*
X130572095Y-55127857D01*
X130572095Y-55127857D02*
X130619714Y-55223095D01*
X130619714Y-55223095D02*
X130619714Y-55318333D01*
X130619714Y-55318333D02*
X130572095Y-55461190D01*
X130572095Y-55461190D02*
X130000667Y-56032619D01*
X130000667Y-56032619D02*
X130619714Y-56032619D01*
%TO.C,C1*%
X139319333Y-55937380D02*
X139271714Y-55985000D01*
X139271714Y-55985000D02*
X139128857Y-56032619D01*
X139128857Y-56032619D02*
X139033619Y-56032619D01*
X139033619Y-56032619D02*
X138890762Y-55985000D01*
X138890762Y-55985000D02*
X138795524Y-55889761D01*
X138795524Y-55889761D02*
X138747905Y-55794523D01*
X138747905Y-55794523D02*
X138700286Y-55604047D01*
X138700286Y-55604047D02*
X138700286Y-55461190D01*
X138700286Y-55461190D02*
X138747905Y-55270714D01*
X138747905Y-55270714D02*
X138795524Y-55175476D01*
X138795524Y-55175476D02*
X138890762Y-55080238D01*
X138890762Y-55080238D02*
X139033619Y-55032619D01*
X139033619Y-55032619D02*
X139128857Y-55032619D01*
X139128857Y-55032619D02*
X139271714Y-55080238D01*
X139271714Y-55080238D02*
X139319333Y-55127857D01*
X140271714Y-56032619D02*
X139700286Y-56032619D01*
X139986000Y-56032619D02*
X139986000Y-55032619D01*
X139986000Y-55032619D02*
X139890762Y-55175476D01*
X139890762Y-55175476D02*
X139795524Y-55270714D01*
X139795524Y-55270714D02*
X139700286Y-55318333D01*
D11*
%TO.C,U5*%
X99618000Y-57020000D02*
X89338000Y-57020000D01*
X97128000Y-67360000D02*
X97128000Y-57080000D01*
X97128000Y-57080000D02*
X95478000Y-57080000D01*
X93478000Y-57080000D02*
X91828000Y-57080000D01*
X89338000Y-57020000D02*
X89338000Y-67420000D01*
X91828000Y-57080000D02*
X91828000Y-67360000D01*
X89338000Y-67420000D02*
X99618000Y-67420000D01*
X91828000Y-67360000D02*
X97128000Y-67360000D01*
X99618000Y-67420000D02*
X99618000Y-57020000D01*
X93478000Y-57080000D02*
G75*
G03*
X95478000Y-57080000I1000000J0D01*
G01*
%TO.C,U4*%
X99628000Y-72270000D02*
X89348000Y-72270000D01*
X97138000Y-82610000D02*
X97138000Y-72330000D01*
X97138000Y-72330000D02*
X95488000Y-72330000D01*
X93488000Y-72330000D02*
X91838000Y-72330000D01*
X89348000Y-72270000D02*
X89348000Y-82670000D01*
X91838000Y-72330000D02*
X91838000Y-82610000D01*
X89348000Y-82670000D02*
X99628000Y-82670000D01*
X91838000Y-82610000D02*
X97138000Y-82610000D01*
X99628000Y-82670000D02*
X99628000Y-72270000D01*
X93488000Y-72330000D02*
G75*
G03*
X95488000Y-72330000I1000000J0D01*
G01*
%TO.C,U3*%
X99374000Y-87002000D02*
X89094000Y-87002000D01*
X96884000Y-97342000D02*
X96884000Y-87062000D01*
X96884000Y-87062000D02*
X95234000Y-87062000D01*
X93234000Y-87062000D02*
X91584000Y-87062000D01*
X89094000Y-87002000D02*
X89094000Y-97402000D01*
X91584000Y-87062000D02*
X91584000Y-97342000D01*
X89094000Y-97402000D02*
X99374000Y-97402000D01*
X91584000Y-97342000D02*
X96884000Y-97342000D01*
X99374000Y-97402000D02*
X99374000Y-87002000D01*
X93234000Y-87062000D02*
G75*
G03*
X95234000Y-87062000I1000000J0D01*
G01*
%TO.C,U2*%
X131024000Y-42379000D02*
X141264000Y-42379000D01*
X134294000Y-42379000D02*
X134294000Y-43889000D01*
X137995000Y-42379000D02*
X137995000Y-43889000D01*
X131024000Y-42379000D02*
X131024000Y-47020000D01*
X131024000Y-47020000D02*
X141264000Y-47020000D01*
X141264000Y-42379000D02*
X141264000Y-47020000D01*
X131024000Y-43889000D02*
X141264000Y-43889000D01*
%TO.C,U1*%
X121556000Y-88960000D02*
X126856000Y-88960000D01*
X129346000Y-68460000D02*
X119066000Y-68460000D01*
X126856000Y-88960000D02*
X126856000Y-68520000D01*
X123206000Y-68520000D02*
X121556000Y-68520000D01*
X126856000Y-68520000D02*
X125206000Y-68520000D01*
X121556000Y-68520000D02*
X121556000Y-88960000D01*
X129346000Y-89020000D02*
X129346000Y-68460000D01*
X119066000Y-68460000D02*
X119066000Y-89020000D01*
X119066000Y-89020000D02*
X129346000Y-89020000D01*
X123206000Y-68520000D02*
G75*
G03*
X125206000Y-68520000I1000000J0D01*
G01*
%TO.C,J5*%
X114046000Y-46736000D02*
X114046000Y-39116000D01*
X103886000Y-39116000D02*
X103886000Y-46736000D01*
X103886000Y-40386000D02*
X114046000Y-40386000D01*
X114046000Y-39116000D02*
X103886000Y-39116000D01*
X103886000Y-46736000D02*
X114046000Y-46736000D01*
%TO.C,J4*%
X77181000Y-72475000D02*
X79841000Y-72475000D01*
X77181000Y-59715000D02*
X77181000Y-72475000D01*
X79841000Y-57115000D02*
X79841000Y-58445000D01*
X79841000Y-59715000D02*
X79841000Y-72475000D01*
X77181000Y-59715000D02*
X79841000Y-59715000D01*
X78511000Y-57115000D02*
X79841000Y-57115000D01*
%TO.C,J3*%
X125222000Y-99568000D02*
X125222000Y-107188000D01*
X135382000Y-107188000D02*
X135382000Y-99568000D01*
X135382000Y-105918000D02*
X125222000Y-105918000D01*
X125222000Y-107188000D02*
X135382000Y-107188000D01*
X135382000Y-99568000D02*
X125222000Y-99568000D01*
%TO.C,J2*%
X109474000Y-99314000D02*
X109474000Y-106934000D01*
X119634000Y-106934000D02*
X119634000Y-99314000D01*
X119634000Y-105664000D02*
X109474000Y-105664000D01*
X109474000Y-106934000D02*
X119634000Y-106934000D01*
X119634000Y-99314000D02*
X109474000Y-99314000D01*
%TO.C,J1*%
X83820000Y-44450000D02*
X76200000Y-44450000D01*
X76200000Y-54610000D02*
X83820000Y-54610000D01*
X77470000Y-54610000D02*
X77470000Y-44450000D01*
X76200000Y-44450000D02*
X76200000Y-54610000D01*
X83820000Y-54610000D02*
X83820000Y-44450000D01*
%TO.C,D12*%
X139500000Y-74972000D02*
X142440000Y-74972000D01*
X139500000Y-75872000D02*
X139500000Y-70432000D01*
X139500000Y-75092000D02*
X142440000Y-75092000D01*
X139830000Y-75872000D02*
X139500000Y-75872000D01*
X142440000Y-75872000D02*
X142440000Y-70432000D01*
X139500000Y-74852000D02*
X142440000Y-74852000D01*
X142110000Y-75872000D02*
X142440000Y-75872000D01*
X142440000Y-70432000D02*
X142110000Y-70432000D01*
X139500000Y-70432000D02*
X139830000Y-70432000D01*
%TO.C,D11*%
X133404000Y-70432000D02*
X133734000Y-70432000D01*
X136344000Y-70432000D02*
X136014000Y-70432000D01*
X136014000Y-75872000D02*
X136344000Y-75872000D01*
X133404000Y-74852000D02*
X136344000Y-74852000D01*
X136344000Y-75872000D02*
X136344000Y-70432000D01*
X133734000Y-75872000D02*
X133404000Y-75872000D01*
X133404000Y-75092000D02*
X136344000Y-75092000D01*
X133404000Y-75872000D02*
X133404000Y-70432000D01*
X133404000Y-74972000D02*
X136344000Y-74972000D01*
%TO.C,D10*%
X139500000Y-86656000D02*
X142440000Y-86656000D01*
X139500000Y-87556000D02*
X139500000Y-82116000D01*
X139500000Y-86776000D02*
X142440000Y-86776000D01*
X139830000Y-87556000D02*
X139500000Y-87556000D01*
X142440000Y-87556000D02*
X142440000Y-82116000D01*
X139500000Y-86536000D02*
X142440000Y-86536000D01*
X142110000Y-87556000D02*
X142440000Y-87556000D01*
X142440000Y-82116000D02*
X142110000Y-82116000D01*
X139500000Y-82116000D02*
X139830000Y-82116000D01*
%TO.C,D9*%
X133404000Y-81862000D02*
X133734000Y-81862000D01*
X136344000Y-81862000D02*
X136014000Y-81862000D01*
X136014000Y-87302000D02*
X136344000Y-87302000D01*
X133404000Y-86282000D02*
X136344000Y-86282000D01*
X136344000Y-87302000D02*
X136344000Y-81862000D01*
X133734000Y-87302000D02*
X133404000Y-87302000D01*
X133404000Y-86522000D02*
X136344000Y-86522000D01*
X133404000Y-87302000D02*
X133404000Y-81862000D01*
X133404000Y-86402000D02*
X136344000Y-86402000D01*
%TO.C,D6*%
X106470000Y-74728000D02*
X109410000Y-74728000D01*
X106470000Y-75628000D02*
X106470000Y-70188000D01*
X106470000Y-74848000D02*
X109410000Y-74848000D01*
X106800000Y-75628000D02*
X106470000Y-75628000D01*
X109410000Y-75628000D02*
X109410000Y-70188000D01*
X106470000Y-74608000D02*
X109410000Y-74608000D01*
X109080000Y-75628000D02*
X109410000Y-75628000D01*
X109410000Y-70188000D02*
X109080000Y-70188000D01*
X106470000Y-70188000D02*
X106800000Y-70188000D01*
%TO.C,D5*%
X106724000Y-85904000D02*
X109664000Y-85904000D01*
X106724000Y-86804000D02*
X106724000Y-81364000D01*
X106724000Y-86024000D02*
X109664000Y-86024000D01*
X107054000Y-86804000D02*
X106724000Y-86804000D01*
X109664000Y-86804000D02*
X109664000Y-81364000D01*
X106724000Y-85784000D02*
X109664000Y-85784000D01*
X109334000Y-86804000D02*
X109664000Y-86804000D01*
X109664000Y-81364000D02*
X109334000Y-81364000D01*
X106724000Y-81364000D02*
X107054000Y-81364000D01*
%TO.C,D4*%
X112058000Y-85904000D02*
X114998000Y-85904000D01*
X112058000Y-86804000D02*
X112058000Y-81364000D01*
X112058000Y-86024000D02*
X114998000Y-86024000D01*
X112388000Y-86804000D02*
X112058000Y-86804000D01*
X114998000Y-86804000D02*
X114998000Y-81364000D01*
X112058000Y-85784000D02*
X114998000Y-85784000D01*
X114668000Y-86804000D02*
X114998000Y-86804000D01*
X114998000Y-81364000D02*
X114668000Y-81364000D01*
X112058000Y-81364000D02*
X112388000Y-81364000D01*
%TO.C,D3*%
X112058000Y-74728000D02*
X114998000Y-74728000D01*
X112058000Y-75628000D02*
X112058000Y-70188000D01*
X112058000Y-74848000D02*
X114998000Y-74848000D01*
X112388000Y-75628000D02*
X112058000Y-75628000D01*
X114998000Y-75628000D02*
X114998000Y-70188000D01*
X112058000Y-74608000D02*
X114998000Y-74608000D01*
X114668000Y-75628000D02*
X114998000Y-75628000D01*
X114998000Y-70188000D02*
X114668000Y-70188000D01*
X112058000Y-70188000D02*
X112388000Y-70188000D01*
%TO.C,C2*%
X127164000Y-56699000D02*
X127164000Y-57365000D01*
X132504000Y-56699000D02*
X132504000Y-57365000D01*
X132504000Y-59475000D02*
X132504000Y-60141000D01*
X127164000Y-56699000D02*
X132504000Y-56699000D01*
X127164000Y-59475000D02*
X127164000Y-60141000D01*
X127164000Y-60141000D02*
X132504000Y-60141000D01*
%TO.C,C1*%
X136816000Y-56699000D02*
X136816000Y-57365000D01*
X142156000Y-56699000D02*
X142156000Y-57365000D01*
X142156000Y-59475000D02*
X142156000Y-60141000D01*
X136816000Y-56699000D02*
X142156000Y-56699000D01*
X136816000Y-59475000D02*
X136816000Y-60141000D01*
X136816000Y-60141000D02*
X142156000Y-60141000D01*
%TD*%
M02*
