%TF.GenerationSoftware,KiCad,Pcbnew,7.0.2*%
%TF.CreationDate,2023-10-11T17:53:06-05:00*%
%TF.ProjectId,motor_driver,6d6f746f-725f-4647-9269-7665722e6b69,rev?*%
%TF.SameCoordinates,Original*%
%TF.FileFunction,Copper,L2,Bot*%
%TF.FilePolarity,Positive*%
%FSLAX46Y46*%
G04 Gerber Fmt 4.6, Leading zero omitted, Abs format (unit mm)*
G04 Created by KiCad (PCBNEW 7.0.2) date 2023-10-11 17:53:06*
%MOMM*%
%LPD*%
G01*
G04 APERTURE LIST*
%TA.AperFunction,ComponentPad*%
%ADD10R,1.600000X1.600000*%
%TD*%
%TA.AperFunction,ComponentPad*%
%ADD11O,1.600000X1.600000*%
%TD*%
%TA.AperFunction,ComponentPad*%
%ADD12R,1.905000X2.000000*%
%TD*%
%TA.AperFunction,ComponentPad*%
%ADD13O,1.905000X2.000000*%
%TD*%
%TA.AperFunction,ComponentPad*%
%ADD14R,3.000000X3.000000*%
%TD*%
%TA.AperFunction,ComponentPad*%
%ADD15C,3.000000*%
%TD*%
%TA.AperFunction,ComponentPad*%
%ADD16R,1.700000X1.700000*%
%TD*%
%TA.AperFunction,ComponentPad*%
%ADD17O,1.700000X1.700000*%
%TD*%
%TA.AperFunction,ComponentPad*%
%ADD18R,1.800000X1.800000*%
%TD*%
%TA.AperFunction,ComponentPad*%
%ADD19O,1.800000X1.800000*%
%TD*%
%TA.AperFunction,ComponentPad*%
%ADD20C,1.600000*%
%TD*%
%TA.AperFunction,Conductor*%
%ADD21C,0.250000*%
%TD*%
G04 APERTURE END LIST*
D10*
%TO.P,U5,1*%
%TO.N,Net-(U1-4A)*%
X90668000Y-58410000D03*
D11*
%TO.P,U5,2,-*%
X90668000Y-60950000D03*
%TO.P,U5,3,+*%
%TO.N,M2_D2*%
X90668000Y-63490000D03*
%TO.P,U5,4,V-*%
%TO.N,GND*%
X90668000Y-66030000D03*
%TO.P,U5,5,+*%
%TO.N,M2_SPEED*%
X98288000Y-66030000D03*
%TO.P,U5,6,-*%
%TO.N,Net-(U1-EN3\u002C4)*%
X98288000Y-63490000D03*
%TO.P,U5,7*%
X98288000Y-60950000D03*
%TO.P,U5,8,V+*%
%TO.N,+5V*%
X98288000Y-58410000D03*
%TD*%
D10*
%TO.P,U4,1*%
%TO.N,Net-(U1-EN1\u002C2)*%
X90678000Y-73660000D03*
D11*
%TO.P,U4,2,-*%
X90678000Y-76200000D03*
%TO.P,U4,3,+*%
%TO.N,M1_SPEED*%
X90678000Y-78740000D03*
%TO.P,U4,4,V-*%
%TO.N,GND*%
X90678000Y-81280000D03*
%TO.P,U4,5,+*%
%TO.N,M2_D1*%
X98298000Y-81280000D03*
%TO.P,U4,6,-*%
%TO.N,Net-(U1-3A)*%
X98298000Y-78740000D03*
%TO.P,U4,7*%
X98298000Y-76200000D03*
%TO.P,U4,8,V+*%
%TO.N,+5V*%
X98298000Y-73660000D03*
%TD*%
D10*
%TO.P,U3,1*%
%TO.N,Net-(U1-1A)*%
X90424000Y-88392000D03*
D11*
%TO.P,U3,2,-*%
X90424000Y-90932000D03*
%TO.P,U3,3,+*%
%TO.N,M1_D1*%
X90424000Y-93472000D03*
%TO.P,U3,4,V-*%
%TO.N,GND*%
X90424000Y-96012000D03*
%TO.P,U3,5,+*%
%TO.N,M1_D2*%
X98044000Y-96012000D03*
%TO.P,U3,6,-*%
%TO.N,Net-(U1-2A)*%
X98044000Y-93472000D03*
%TO.P,U3,7*%
X98044000Y-90932000D03*
%TO.P,U3,8,V+*%
%TO.N,+5V*%
X98044000Y-88392000D03*
%TD*%
D12*
%TO.P,U2,1,IN*%
%TO.N,VCC*%
X133604000Y-45649000D03*
D13*
%TO.P,U2,2,GND*%
%TO.N,GND*%
X136144000Y-45649000D03*
%TO.P,U2,3,OUT*%
%TO.N,+5V*%
X138684000Y-45649000D03*
%TD*%
D10*
%TO.P,U1,1,EN1\u002C2*%
%TO.N,Net-(U1-EN1\u002C2)*%
X120396000Y-69850000D03*
D11*
%TO.P,U1,2,1A*%
%TO.N,Net-(U1-1A)*%
X120396000Y-72390000D03*
%TO.P,U1,3,1Y*%
%TO.N,Net-(D3-K)*%
X120396000Y-74930000D03*
%TO.P,U1,4,GND*%
%TO.N,GND*%
X120396000Y-77470000D03*
%TO.P,U1,5,GND*%
X120396000Y-80010000D03*
%TO.P,U1,6,2Y*%
%TO.N,Net-(D5-K)*%
X120396000Y-82550000D03*
%TO.P,U1,7,2A*%
%TO.N,Net-(U1-2A)*%
X120396000Y-85090000D03*
%TO.P,U1,8,VCC2*%
%TO.N,VCC*%
X120396000Y-87630000D03*
%TO.P,U1,9,EN3\u002C4*%
%TO.N,Net-(U1-EN3\u002C4)*%
X128016000Y-87630000D03*
%TO.P,U1,10,3A*%
%TO.N,Net-(U1-3A)*%
X128016000Y-85090000D03*
%TO.P,U1,11,3Y*%
%TO.N,Net-(D11-K)*%
X128016000Y-82550000D03*
%TO.P,U1,12,GND*%
%TO.N,GND*%
X128016000Y-80010000D03*
%TO.P,U1,13,GND*%
X128016000Y-77470000D03*
%TO.P,U1,14,4Y*%
%TO.N,Net-(D10-A)*%
X128016000Y-74930000D03*
%TO.P,U1,15,4A*%
%TO.N,Net-(U1-4A)*%
X128016000Y-72390000D03*
%TO.P,U1,16,VCC1*%
%TO.N,+5V*%
X128016000Y-69850000D03*
%TD*%
D14*
%TO.P,J5,1,Pin_1*%
%TO.N,+5V*%
X111506000Y-42926000D03*
D15*
%TO.P,J5,2,Pin_2*%
%TO.N,GND*%
X106426000Y-42926000D03*
%TD*%
D16*
%TO.P,J4,1,Pin_1*%
%TO.N,M2_SPEED*%
X78511000Y-58445000D03*
D17*
%TO.P,J4,2,Pin_2*%
%TO.N,M2_D2*%
X78511000Y-60985000D03*
%TO.P,J4,3,Pin_3*%
%TO.N,M2_D1*%
X78511000Y-63525000D03*
%TO.P,J4,4,Pin_4*%
%TO.N,M1_SPEED*%
X78511000Y-66065000D03*
%TO.P,J4,5,Pin_5*%
%TO.N,M1_D2*%
X78511000Y-68605000D03*
%TO.P,J4,6,Pin_6*%
%TO.N,M1_D1*%
X78511000Y-71145000D03*
%TD*%
D14*
%TO.P,J3,1,Pin_1*%
%TO.N,Net-(D11-K)*%
X127762000Y-103378000D03*
D15*
%TO.P,J3,2,Pin_2*%
%TO.N,Net-(D10-A)*%
X132842000Y-103378000D03*
%TD*%
D14*
%TO.P,J2,1,Pin_1*%
%TO.N,Net-(D3-K)*%
X112014000Y-103124000D03*
D15*
%TO.P,J2,2,Pin_2*%
%TO.N,Net-(D5-K)*%
X117094000Y-103124000D03*
%TD*%
D14*
%TO.P,J1,1,Pin_1*%
%TO.N,GND*%
X80010000Y-46990000D03*
D15*
%TO.P,J1,2,Pin_2*%
%TO.N,VCC*%
X80010000Y-52070000D03*
%TD*%
D18*
%TO.P,D12,1,K*%
%TO.N,Net-(D10-A)*%
X140970000Y-76962000D03*
D19*
%TO.P,D12,2,A*%
%TO.N,GND*%
X140970000Y-69342000D03*
%TD*%
%TO.P,D11,2,A*%
%TO.N,GND*%
X134874000Y-69342000D03*
D18*
%TO.P,D11,1,K*%
%TO.N,Net-(D11-K)*%
X134874000Y-76962000D03*
%TD*%
%TO.P,D10,1,K*%
%TO.N,VCC*%
X140970000Y-88646000D03*
D19*
%TO.P,D10,2,A*%
%TO.N,Net-(D10-A)*%
X140970000Y-81026000D03*
%TD*%
%TO.P,D9,2,A*%
%TO.N,Net-(D11-K)*%
X134874000Y-80772000D03*
D18*
%TO.P,D9,1,K*%
%TO.N,VCC*%
X134874000Y-88392000D03*
%TD*%
%TO.P,D6,1,K*%
%TO.N,VCC*%
X107940000Y-76718000D03*
D19*
%TO.P,D6,2,A*%
%TO.N,Net-(D5-K)*%
X107940000Y-69098000D03*
%TD*%
D18*
%TO.P,D5,1,K*%
%TO.N,Net-(D5-K)*%
X108194000Y-87894000D03*
D19*
%TO.P,D5,2,A*%
%TO.N,GND*%
X108194000Y-80274000D03*
%TD*%
D18*
%TO.P,D4,1,K*%
%TO.N,VCC*%
X113528000Y-87894000D03*
D19*
%TO.P,D4,2,A*%
%TO.N,Net-(D3-K)*%
X113528000Y-80274000D03*
%TD*%
D18*
%TO.P,D3,1,K*%
%TO.N,Net-(D3-K)*%
X113528000Y-76718000D03*
D19*
%TO.P,D3,2,A*%
%TO.N,GND*%
X113528000Y-69098000D03*
%TD*%
D20*
%TO.P,C2,1*%
%TO.N,+5V*%
X127334000Y-58420000D03*
%TO.P,C2,2*%
%TO.N,GND*%
X132334000Y-58420000D03*
%TD*%
%TO.P,C1,1*%
%TO.N,VCC*%
X136986000Y-58420000D03*
%TO.P,C1,2*%
%TO.N,GND*%
X141986000Y-58420000D03*
%TD*%
D21*
%TO.N,+5V*%
X132405000Y-39370000D02*
X138684000Y-45649000D01*
X84074000Y-39370000D02*
X132405000Y-39370000D01*
X75946000Y-95886396D02*
X75946000Y-47498000D01*
X82675604Y-102616000D02*
X75946000Y-95886396D01*
X96919000Y-94979396D02*
X89282396Y-102616000D01*
X89282396Y-102616000D02*
X82675604Y-102616000D01*
X75946000Y-47498000D02*
X84074000Y-39370000D01*
X96919000Y-89517000D02*
X96919000Y-94979396D01*
X98044000Y-88392000D02*
X96919000Y-89517000D01*
%TO.N,VCC*%
X76962000Y-55118000D02*
X80010000Y-52070000D01*
X81280000Y-100584000D02*
X76962000Y-96266000D01*
X90678000Y-100584000D02*
X81280000Y-100584000D01*
X76962000Y-96266000D02*
X76962000Y-55118000D01*
X91549000Y-99713000D02*
X90678000Y-100584000D01*
X91549000Y-93109000D02*
X91549000Y-99713000D01*
X107940000Y-76718000D02*
X91549000Y-93109000D01*
%TO.N,GND*%
X131643500Y-41101000D02*
X108251000Y-41101000D01*
X108251000Y-41101000D02*
X106426000Y-42926000D01*
X136144000Y-45601500D02*
X131643500Y-41101000D01*
X136144000Y-45649000D02*
X136144000Y-45601500D01*
X89553000Y-80155000D02*
X90678000Y-81280000D01*
X89553000Y-67145000D02*
X89553000Y-80155000D01*
X90668000Y-66030000D02*
X89553000Y-67145000D01*
X89299000Y-94887000D02*
X90424000Y-96012000D01*
X89299000Y-82659000D02*
X89299000Y-94887000D01*
X90678000Y-81280000D02*
X89299000Y-82659000D01*
%TO.N,Net-(U1-2A)*%
X98044000Y-90932000D02*
X114554000Y-90932000D01*
X114554000Y-90932000D02*
X120396000Y-85090000D01*
%TO.N,Net-(U1-1A)*%
X105863000Y-75493000D02*
X117293000Y-75493000D01*
X117293000Y-75493000D02*
X120396000Y-72390000D01*
X90424000Y-90932000D02*
X105863000Y-75493000D01*
%TO.N,Net-(U1-EN1\u002C2)*%
X117711000Y-72535000D02*
X120396000Y-69850000D01*
X91803000Y-72535000D02*
X117711000Y-72535000D01*
X90678000Y-73660000D02*
X91803000Y-72535000D01*
%TO.N,Net-(U1-EN3\u002C4)*%
X116286000Y-63490000D02*
X98288000Y-63490000D01*
X123444000Y-70648000D02*
X116286000Y-63490000D01*
X123444000Y-83058000D02*
X123444000Y-70648000D01*
X128016000Y-87630000D02*
X123444000Y-83058000D01*
%TO.N,Net-(U1-4A)*%
X115451000Y-59825000D02*
X128016000Y-72390000D01*
X91793000Y-59825000D02*
X115451000Y-59825000D01*
X90668000Y-60950000D02*
X91793000Y-59825000D01*
%TO.N,GND*%
X89543000Y-56523000D02*
X89543000Y-64905000D01*
X80010000Y-46990000D02*
X89543000Y-56523000D01*
X89543000Y-64905000D02*
X90668000Y-66030000D01*
%TO.N,VCC*%
X113528000Y-82306000D02*
X107940000Y-76718000D01*
X113528000Y-87894000D02*
X113528000Y-82306000D01*
X137414000Y-85852000D02*
X134874000Y-88392000D01*
X136986000Y-58754000D02*
X137414000Y-59182000D01*
X137414000Y-59182000D02*
X137414000Y-85852000D01*
X136986000Y-58420000D02*
X136986000Y-58754000D01*
X121521000Y-88755000D02*
X120396000Y-87630000D01*
X134874000Y-88392000D02*
X134511000Y-88755000D01*
X134511000Y-88755000D02*
X121521000Y-88755000D01*
%TD*%
M02*
