M48
; DRILL file {KiCad 7.0.2} date Wed Oct 11 17:53:10 2023
; FORMAT={-:-/ absolute / metric / decimal}
; #@! TF.CreationDate,2023-10-11T17:53:10-05:00
; #@! TF.GenerationSoftware,Kicad,Pcbnew,7.0.2
; #@! TF.FileFunction,Plated,1,2,PTH
FMAT,2
METRIC
; #@! TA.AperFunction,Plated,PTH,ComponentDrill
T1C0.800
; #@! TA.AperFunction,Plated,PTH,ComponentDrill
T2C0.900
; #@! TA.AperFunction,Plated,PTH,ComponentDrill
T3C1.000
; #@! TA.AperFunction,Plated,PTH,ComponentDrill
T4C1.100
; #@! TA.AperFunction,Plated,PTH,ComponentDrill
T5C1.520
%
G90
G05
T1
X90.424Y-88.392
X90.424Y-90.932
X90.424Y-93.472
X90.424Y-96.012
X90.668Y-58.41
X90.668Y-60.95
X90.668Y-63.49
X90.668Y-66.03
X90.678Y-73.66
X90.678Y-76.2
X90.678Y-78.74
X90.678Y-81.28
X98.044Y-88.392
X98.044Y-90.932
X98.044Y-93.472
X98.044Y-96.012
X98.288Y-58.41
X98.288Y-60.95
X98.288Y-63.49
X98.288Y-66.03
X98.298Y-73.66
X98.298Y-76.2
X98.298Y-78.74
X98.298Y-81.28
X120.396Y-69.85
X120.396Y-72.39
X120.396Y-74.93
X120.396Y-77.47
X120.396Y-80.01
X120.396Y-82.55
X120.396Y-85.09
X120.396Y-87.63
X127.334Y-58.42
X128.016Y-69.85
X128.016Y-72.39
X128.016Y-74.93
X128.016Y-77.47
X128.016Y-80.01
X128.016Y-82.55
X128.016Y-85.09
X128.016Y-87.63
X132.334Y-58.42
X136.986Y-58.42
X141.986Y-58.42
T2
X107.94Y-69.098
X107.94Y-76.718
X108.194Y-80.274
X108.194Y-87.894
X113.528Y-69.098
X113.528Y-76.718
X113.528Y-80.274
X113.528Y-87.894
X134.874Y-69.342
X134.874Y-76.962
X134.874Y-80.772
X134.874Y-88.392
X140.97Y-69.342
X140.97Y-76.962
X140.97Y-81.026
X140.97Y-88.646
T3
X78.511Y-58.445
X78.511Y-60.985
X78.511Y-63.525
X78.511Y-66.065
X78.511Y-68.605
X78.511Y-71.145
T4
X133.604Y-45.649
X136.144Y-45.649
X138.684Y-45.649
T5
X80.01Y-46.99
X80.01Y-52.07
X106.426Y-42.926
X111.506Y-42.926
X112.014Y-103.124
X117.094Y-103.124
X127.762Y-103.378
X132.842Y-103.378
T0
M30
